<?xml version="1.0" encoding="utf-8"?>
<svg viewBox="0 0 100 100" xmlns="http://www.w3.org/2000/svg">
<script>
setTimeout(() => {
  window.location.reload();
}, 500)
</script>
  <style>
    .orange-shape {
      fill: url(#orangeBaseGradient);
    }

    .white-shape {
      fill: url(#whiteBaseGradient);
    }

    .brown-shape {
      fill: url(#brownRadialGradient);
    }
  </style>
  <defs>
    <symbol id="ear" viewBox="0 0 30 30" width="30" height="30">
      <path class="white-shape" d="M 6.391 24.004 C 6.391 24.004 1.832 17.042 5.211 6.822 C 22.242 4.384 27.999 10.753 27.999 10.753 C 27.999 10.753 21.756 23.197 21.756 23.22 C 21.756 23.244 6.752 24.002 6.391 24.004 Z"/>
      <path style="fill: url(#innerEarGradient);" d="M 9.067 22.607 C 5.979 15.817 6.858 10.603 8.14 9.54 C 9.403 8.493 21.714 9.328 19.319 11.922 C 17.578 13.807 14.96 13.228 12.414 14.123 C 17.726 15.407 9.383 23.302 9.067 22.607 Z"/>
    </symbol>
    <symbol id="eyebrow" viewBox="0 0 10 10" width="10" height="10">
      <path class="white-shape" d="M 1.932 4.906 C 4.785 5.332 7.079 8.827 7.985 7.612 C 9.006 6.245 6.43 3.459 4.891 2.725 C 1.912 1.304 0.942 4.758 1.932 4.906 Z"/>
    </symbol>
    <radialGradient id="orangeBaseGradient" cx="0%" cy="0%" r="100%">
      <stop offset="0" style="stop-color: #ffc300;"/>
      <stop offset="1" style="stop-color: #ff7700;"/>
    </radialGradient>
    <radialGradient id="whiteBaseGradient" cx="0%" cy="0%" r="100%" fr="80%">
      <stop offset="0" style="stop-color: #ffecdd;"/>
      <stop offset="1" style="stop-color: #ffdbbb;"/>
    </radialGradient>
    <radialGradient id="innerEarGradient">
      <stop offset="0" style="stop-color: #f5c59e;"/>
      <stop offset="1" style="stop-color: #fcdec7;"/>
    </radialGradient>
    <radialGradient id="brownRadialGradient" cx="0%" cy="0%" r="100%">
      <stop offset="0" style="stop-color: #8c4100;"/>
      <stop offset="1" style="stop-color: #4a2300;"/>
    </radialGradient>
    <mask id="baseShape">
      <path fill="white" d="
        M -39,-5
        C -19,-8
          -22,-21
          0,-21
        C 22,-21
          19,-8
          39,-5
        C 39,-5
          30,24
          0,24
        C -30,24
          -39,-5
          -39,-5
        Z" />
    </mask>
  </defs>
  <rect x="0" y="0" width="100" height="100" style="fill: rgb(100, 100, 100);"/>
  <g transform="translate(50 50)">
    <use href="#ear" width="30" height="30" transform="translate(-38, -29)" />
    <use href="#ear" width="30" height="30" transform="translate(38, -29) scale(-1, 1)" />
    <g mask="url(#baseShape)">
      <rect class="orange-shape" x="-40" y="-25" width="80" height="55" />
      <path id="facelower" class="white-shape" d="
        M -39,-5
        C -39,-5
          -34,0
          -23,2
        C -20,2
          -21,27
          -4,26
        C -3,26
          -5,22
          -6,21
        C -13,14
          -6,8
          -4.5,8
        C -3,8
          -2.5,9.5
          0,9.5
        C 2.5,9.5
          3,8
          4.5,8
        C 6,8
          13,14
          6,21
        C 5,22
          3,26
          4,26
        C 21,27
          20,2
          23,2
        C 23,2
          34,0

          39,-5
        C 39,-5
          30,30
          0,30
        C -30,30
          -39,-5
          -39,-5
        Z" />
    </g>
    <ellipse cx="-11" cy="6" rx="3.5" ry="3.5" class="brown-shape" />
    <ellipse cx="11" cy="6" rx="3.5" ry="3.5" class="brown-shape" />
    <use href="#eyebrow" width="10" height="10" transform="translate(8, -6)" />
    <use href="#eyebrow" width="10" height="10" transform="translate(-8, -6) scale(-1, 1)" />
    <path id="nose" class="brown-shape" d="
      M -5 15
      C -4 12
        4 12
        5 15
      C 6 17
        2 19
        0 19
      C -2 19
        -6 17
        -5 15
      Z" />
  </g>
</svg>
